<?xml version="1.0" encoding="UTF-8"?>
<svg xmlns="http://www.w3.org/2000/svg" viewBox="0 0 60 60" width="512" height="512"><g id="Icons"><path d="M59,14H52a1,1,0,0,0-2,0H43a1,1,0,0,0,0,2h7v2H48a1.993,1.993,0,0,0-1.722,1H37.419a8,8,0,0,0-14.838,0H13.722A1.993,1.993,0,0,0,12,18H10V16h7a1,1,0,0,0,0-2H10a1,1,0,0,0-2,0H1a1,1,0,0,0,0,2H8v2H6a2,2,0,0,0-2,2v4a2,2,0,0,0,2,2h6a1.988,1.988,0,0,0,1.528-.725l2.287.88L10.1,44.388A2,2,0,0,0,12,47h1.94a2,2,0,0,0,1.88-1.318l6.23-17.129,3.229,1.241L26.382,32H25a3,3,0,0,0-3,3v8a3,3,0,0,0,3,3H35a3,3,0,0,0,3-3V35a3,3,0,0,0-3-3H33.618l1.1-2.206,3.229-1.242,6.235,17.139A1.992,1.992,0,0,0,46.061,47H48a2.006,2.006,0,0,0,1.619-.829,1.985,1.985,0,0,0,.285-1.77l-5.72-18.247,2.287-.879A1.988,1.988,0,0,0,48,26h6a2,2,0,0,0,2-2V20a2,2,0,0,0-2-2H52V16h7a1,1,0,0,0,0-2ZM12,24H6V20h6Zm1.94,21H12l5.682-18.126,2.5.96ZM35,34a1,1,0,0,1,1,1v8a1,1,0,0,1-1,1H25a1,1,0,0,1-1-1V35a1,1,0,0,1,1-1Zm-7.382-4h4.764l-1,2H28.618ZM48,45l-1.94,0L39.818,27.834l2.5-.96ZM46,23.313,33.814,28H26.186L14,23.313V21h9.29a1,1,0,0,0,.959-.715,6,6,0,0,1,11.5,0A1,1,0,0,0,36.71,21H46ZM54,20v4H48V20Z"/><path d="M30,42a3,3,0,1,0-3-3A3,3,0,0,0,30,42Zm0-4a1,1,0,1,1-1,1A1,1,0,0,1,30,38Z"/></g></svg>
