<svg xmlns="http://www.w3.org/2000/svg" version="1.1" xmlns:xlink="http://www.w3.org/1999/xlink" xmlns:svgjs="http://svgjs.com/svgjs" width="512" height="512"><svg id="SvgjsSvg1000" enable-background="new 0 0 512 512" height="512" viewBox="0 0 512 512" width="512" xmlns="http://www.w3.org/2000/svg"><g><path d="m459.917 333.833c3.246 11.016 13.446 19.083 25.5 19.083 14.658 0 26.583-11.925 26.583-26.583s-11.925-26.583-26.583-26.583c-12.054 0-22.253 8.067-25.5 19.083h-25.903v-15.941c0-9.649-7.851-17.5-17.5-17.5h-22.658v-40.984l16.548 10.224c27.047 16.813 52.951-24.945 25.97-41.716l-67.887-41.961h39.515c9.649 0 17.5-7.851 17.5-17.5v-77.798c0-1.378 1.121-2.5 2.5-2.5h32.421c3.712 10.213 13.514 17.529 24.994 17.529 14.658 0 26.583-11.925 26.583-26.583s-11.925-26.583-26.583-26.583c-12.614 0-23.197 8.834-25.905 20.638h-31.51c-9.649 0-17.5 7.851-17.5 17.5v77.798c0 1.378-1.121 2.5-2.5 2.5h-63.783l-45.515-28.133v-32.992c0-1.378 1.121-2.5 2.5-2.5h41.796c9.649 0 17.5-7.851 17.5-17.5v-22.749c11.016-3.246 19.083-13.445 19.083-25.499 0-14.658-11.925-26.583-26.583-26.583s-26.583 11.925-26.583 26.583c0 12.053 8.067 22.253 19.083 25.499v22.749c0 1.378-1.121 2.5-2.5 2.5h-41.796c-9.649 0-17.5 7.851-17.5 17.5v23.72l-16.731-10.342c-.074-.046-.149-.09-.226-.134-7.04-4.018-14.48-4.018-21.519 0-.075.043-.15.088-.225.133l-16.708 10.327v-23.704c0-9.649-7.851-17.5-17.5-17.5h-41.795c-1.379 0-2.5-1.122-2.5-2.5v-22.749c11.016-3.246 19.083-13.445 19.083-25.499 0-14.658-11.925-26.583-26.583-26.583s-26.583 11.925-26.583 26.583c0 12.053 8.067 22.253 19.083 25.499v22.749c0 9.649 7.851 17.5 17.5 17.5h41.796c1.379 0 2.5 1.122 2.5 2.5v32.977l-45.539 28.147h-63.759c-1.379 0-2.5-1.122-2.5-2.5v-77.798c0-9.649-7.851-17.5-17.5-17.5h-31.51c-2.708-11.804-13.291-20.638-25.905-20.638-14.658 0-26.583 11.925-26.583 26.584s11.925 26.583 26.583 26.583c11.48 0 21.282-7.315 24.994-17.529h32.421c1.379 0 2.5 1.122 2.5 2.5v77.798c0 9.649 7.851 17.5 17.5 17.5h39.491l-67.904 41.971c-26.555 16.505-1.509 58.796 25.97 41.717l16.563-10.234v40.983h-22.633c-9.649 0-17.5 7.851-17.5 17.5v15.941h-25.902c-3.246-11.017-13.446-19.083-25.5-19.083-14.658 0-26.583 11.925-26.583 26.583s11.925 26.583 26.583 26.583c12.054 0 22.253-8.067 25.5-19.083h25.903v35.358c0 1.378-1.121 2.5-2.5 2.5h-38.903c-9.649 0-17.5 7.851-17.5 17.5v30.726c-11.016 3.247-19.083 13.446-19.083 25.5 0 14.658 11.925 26.583 26.583 26.583s26.584-11.925 26.584-26.583c0-12.053-8.067-22.253-19.084-25.499v-30.726c0-1.378 1.121-2.5 2.5-2.5h38.902c9.649 0 17.5-7.851 17.5-17.5v-66.299c0-1.378 1.121-2.5 2.5-2.5h22.634v117.15c0 4.142 3.357 7.5 7.5 7.5h52.389v50.374c0 1.378-1.121 2.5-2.5 2.5h-36.001c-3.246-11.016-13.445-19.083-25.499-19.083-14.658 0-26.583 11.925-26.583 26.583s11.925 26.583 26.583 26.583c12.054 0 22.253-8.067 25.499-19.083h36.001c9.649 0 17.5-7.851 17.5-17.5v-50.374h22.158 81.645 22.182v50.374c0 9.649 7.851 17.5 17.5 17.5h36.001c3.246 11.016 13.444 19.083 25.498 19.083 14.658 0 26.583-11.925 26.583-26.583s-11.925-26.583-26.583-26.583c-12.054 0-22.253 8.067-25.499 19.083h-36.001c-1.379 0-2.5-1.122-2.5-2.5v-50.374h52.364c4.143 0 7.5-3.358 7.5-7.5v-117.15h22.658c1.379 0 2.5 1.122 2.5 2.5v66.299c0 9.649 7.851 17.5 17.5 17.5h38.902c1.379 0 2.5 1.122 2.5 2.5v30.726c-11.017 3.246-19.084 13.445-19.084 25.499 0 14.658 11.926 26.583 26.584 26.583s26.584-11.925 26.584-26.583c0-12.053-8.067-22.253-19.083-25.499v-30.726c0-9.649-7.851-17.5-17.5-17.5h-38.902c-1.379 0-2.5-1.122-2.5-2.5v-35.358h25.902zm25.5-19.083c6.387 0 11.583 5.196 11.583 11.583s-5.196 11.583-11.583 11.583c-6.388 0-11.584-5.196-11.584-11.583s5.196-11.583 11.584-11.583zm0-262.231c6.387 0 11.583 5.196 11.583 11.583s-5.196 11.583-11.583 11.583c-6.388 0-11.584-5.196-11.584-11.583s5.196-11.583 11.584-11.583zm-144-25.936c0-6.387 5.196-11.583 11.583-11.583s11.583 5.196 11.583 11.583-5.196 11.583-11.583 11.583-11.583-5.196-11.583-11.583zm-194 0c0-6.387 5.196-11.583 11.583-11.583s11.583 5.196 11.583 11.583-5.196 11.583-11.583 11.583-11.583-5.196-11.583-11.583zm-120.834 49.103c-6.387 0-11.583-5.196-11.583-11.583s5.196-11.583 11.583-11.583c6.388 0 11.584 5.196 11.584 11.583s-5.196 11.583-11.584 11.583zm0 262.231c-6.387 0-11.583-5.196-11.583-11.583s5.196-11.583 11.583-11.583c6.388 0 11.584 5.196 11.584 11.583 0 6.386-5.196 11.583-11.584 11.583zm11.584 107.5c0 6.387-5.196 11.583-11.584 11.583-6.387 0-11.583-5.196-11.583-11.583s5.196-11.583 11.583-11.583c6.388-.001 11.584 5.196 11.584 11.583zm75.841 51.583c-6.387 0-11.583-5.196-11.583-11.583s5.196-11.583 11.583-11.583 11.583 5.196 11.583 11.583-5.196 11.583-11.583 11.583zm283.984-23.167c6.387 0 11.583 5.196 11.583 11.583s-5.196 11.583-11.583 11.583-11.583-5.196-11.583-11.583c0-6.386 5.196-11.583 11.583-11.583zm-19.136-63.79h-74.546v-100.549c0-4.142-3.357-7.5-7.5-7.5h-81.645c-4.143 0-7.5 3.358-7.5 7.5v33.565c0 9.386 15 9.813 15 0v-26.065h66.645v93.049h-66.645v-27.085c0-9.386-15-9.813-15 0v27.085h-74.547v-174.468l122.869-76.335 57.123 35.489c8.35 5.187 16.365-7.73 7.999-12.899l-61.18-37.8c-2.366-1.462-5.519-1.462-7.885 0l-158.39 97.864c-10.468 6.506-20.732-9.65-10.166-16.217l169.278-104.63c2.308-1.288 4.133-1.29 6.444 0l169.261 104.62c10.587 6.581.323 22.737-10.166 16.217l-63.164-39.027c-8.351-5.158-16.396 7.799-8.053 12.982l31.768 19.736zm118.144 35.374c0 6.387-5.196 11.583-11.583 11.583-6.388 0-11.584-5.196-11.584-11.583s5.196-11.583 11.584-11.583c6.387-.001 11.583 5.196 11.583 11.583z"></path></g></svg><style>@media (prefers-color-scheme: light) { :root { filter: none; } }
</style></svg>