<svg xmlns="http://www.w3.org/2000/svg" version="1.1" xmlns:xlink="http://www.w3.org/1999/xlink" xmlns:svgjs="http://svgjs.com/svgjs" width="128" height="128"><svg height="128" viewBox="0 0 128 128" width="128" xmlns="http://www.w3.org/2000/svg"><g><path d="m106.91 17.03h-20.79v-.038a3.735 3.735 0 0 0 -3.73-3.73h-6.5a2.164 2.164 0 0 1 -1.99-1.174 10.943 10.943 0 0 0 -19.806 0 2.165 2.165 0 0 1 -1.984 1.173h-6.5a3.735 3.735 0 0 0 -3.73 3.73v.038h-20.79a5.506 5.506 0 0 0 -5.5 5.5v94.171a5.506 5.506 0 0 0 5.5 5.5h85.82a5.506 5.506 0 0 0 5.5-5.5v-94.17a5.506 5.506 0 0 0 -5.5-5.5zm-64.98 11a3.725 3.725 0 0 0 3.68 3.232h36.78a3.724 3.724 0 0 0 3.68-3.232h13.84a1.5 1.5 0 0 1 1.5 1.5v80.17a1.5 1.5 0 0 1 -1.5 1.5h-71.82a1.5 1.5 0 0 1 -1.5-1.5v-80.17a1.5 1.5 0 0 1 1.5-1.5zm2.95-11.038a.731.731 0 0 1 .73-.73h6.5a5.171 5.171 0 0 0 4.7-2.9 7.943 7.943 0 0 1 14.376 0 5.17 5.17 0 0 0 4.7 2.9h6.5a.731.731 0 0 1 .73.73v10.539a.732.732 0 0 1 -.73.731h-36.776a.732.732 0 0 1 -.73-.73zm64.53 99.708a2.5 2.5 0 0 1 -2.5 2.5h-85.82a2.5 2.5 0 0 1 -2.5-2.5v-94.17a2.5 2.5 0 0 1 2.5-2.5h20.79v5h-13.79a4.5 4.5 0 0 0 -4.5 4.5v80.17a4.5 4.5 0 0 0 4.5 4.5h71.82a4.5 4.5 0 0 0 4.5-4.5v-80.17a4.5 4.5 0 0 0 -4.5-4.5h-13.79v-5h20.79a2.5 2.5 0 0 1 2.5 2.5z"></path><path d="m55.845 65.388c3.943 3.038 6.155 4.559 8.355 4.559s4.408-1.533 8.343-4.605c10.332-8.063 9.732-15.993 9-19.029a11.077 11.077 0 0 0 -8.4-8.521 9.6 9.6 0 0 0 -9.015 3.331c-2.864-2.863-6.366-4.037-9.834-3.234a10.871 10.871 0 0 0 -7.892 8.451c-.672 3.03-1.071 10.951 9.443 19.048zm-6.524-18.41a7.87 7.87 0 0 1 5.638-6.166 6.32 6.32 0 0 1 1.43-.164c2.348 0 4.7 1.307 6.612 3.728a1.5 1.5 0 0 0 2.405-.07c1.961-2.8 4.5-4.068 7.17-3.566a8.084 8.084 0 0 1 6.043 6.281c1.268 5.22-1.621 11.036-7.926 15.956-3.438 2.684-5.151 3.974-6.5 3.977-1.339 0-3.062-1.281-6.518-3.943-9.155-7.051-8.892-13.561-8.354-16.033z"></path><path d="m49.3 76.052a1.5 1.5 0 0 0 0 3h29.4a1.5 1.5 0 0 0 0-3z"></path><path d="m36.3 89.859h55.4a1.5 1.5 0 0 0 0-3h-55.4a1.5 1.5 0 0 0 0 3z"></path><path d="m36.3 100.667h55.4a1.5 1.5 0 0 0 0-3h-55.4a1.5 1.5 0 0 0 0 3z"></path></g></svg><style>@media (prefers-color-scheme: light) { :root { filter: none; } }
</style></svg>