<svg id="Capa_1" enable-background="new 0 0 435.525 435.525" height="512" viewBox="0 0 435.525 435.525" width="512" xmlns="http://www.w3.org/2000/svg"><g><path d="m285.816 46.263h-39.03l21.775-27.737-23.597-18.526-49.271 62.763 49.271 62.763 23.598-18.526-24.13-30.737h41.385c31.4 0 56.946 25.546 56.946 56.946v45.054h30v-45.054c0-47.942-39.004-86.946-86.947-86.946z" fill="#f67e00"/><path d="m190.562 310-23.598 18.525 24.13 30.737h-41.385c-31.4 0-56.946-25.546-56.946-56.946v-45.054h-30v45.054c0 47.942 39.004 86.946 86.946 86.946h39.03l-21.775 27.738 23.598 18.525 49.271-62.763z" fill="#00d28c"/><path d="m31.263 52.763c0 25.681 20.819 46.5 46.5 46.5l13-46-13-47c-25.681 0-46.5 20.819-46.5 46.5z" fill="#ffe7dd"/><path d="m124.263 52.763c0-25.681-20.819-46.5-46.5-46.5v93c25.681 0 46.5-20.819 46.5-46.5z" fill="#ffcfbc"/><path d="m77.763 99.263c-37.555 0-68 30.445-68 68v40h68l20-51z" fill="#0081ff"/><path d="m145.763 167.263c0-37.555-30.445-68-68-68v108h68z" fill="#0050c1"/><path d="m311.263 269.763c0 25.681 20.819 46.5 46.5 46.5l13-46-13-47c-25.682 0-46.5 20.818-46.5 46.5z" fill="#ffe7dd"/><path d="m404.263 269.763c0-25.681-20.819-46.5-46.5-46.5v93c25.681 0 46.5-20.819 46.5-46.5z" fill="#ffcfbc"/><path d="m357.763 316.263c-37.555 0-68 30.445-68 68v40h68l15-47z" fill="#0081ff"/><path d="m425.763 384.263c0-37.555-30.445-68-68-68v108h68z" fill="#0050c1"/></g></svg>