<svg id="Capa_1" enable-background="new 0 0 512.023 512.023" height="512" viewBox="0 0 512.023 512.023" width="512" xmlns="http://www.w3.org/2000/svg"><g><path d="m484.79 353.33-6.785-6.785c11.747-28.741 17.709-59.174 17.709-90.544 0-30.515-5.659-60.248-16.82-88.373-1.528-3.85-5.887-5.731-9.738-4.205-3.85 1.528-5.732 5.888-4.205 9.738 10.459 26.356 15.763 54.228 15.763 82.84 0 27.275-4.801 53.79-14.276 78.978l-10.649-10.649-15.119-15.12c4.956-17.237 7.473-35.114 7.473-53.21 0-70.317-37.947-134.38-99.332-168.262-.841-15.143-5.324-29.329-12.585-41.698 20.089 7.664 38.934 18.176 56.239 31.422 23.421 17.929 42.83 39.909 57.687 65.328 1.395 2.386 3.904 3.717 6.482 3.717 1.285 0 2.588-.331 3.778-1.026 3.576-2.09 4.781-6.684 2.69-10.26-15.845-27.109-36.542-50.549-61.519-69.669-24.803-18.987-52.574-32.72-82.558-40.866-16.576-15.314-38.719-24.686-63.012-24.686-24.291 0-46.431 9.37-63.007 24.681-104.128 28.29-176.693 123.134-176.693 231.319 0 27.823 4.709 54.965 13.988 80.84l-20.34 40.393c-22.976 44.882-4.67 101.714 41.215 124.818 22.217 11.187 47.451 13.001 70.945 5.243 17.073-5.638 31.797-15.865 42.871-29.489 28.879 11.875 59.468 17.895 91.02 17.895 31.371 0 61.803-5.962 90.544-17.709l6.785 6.785c18.12 18.12 41.922 27.18 65.723 27.18 23.802 0 47.604-9.06 65.724-27.18 36.242-36.239 36.242-95.207.002-131.446zm-306.723-260.383c0-42.98 34.967-77.947 77.947-77.947s77.947 34.967 77.947 77.947v39.337c0 4.142 3.358 7.5 7.5 7.5s7.5-3.358 7.5-7.5v-27.1c52.229 32.172 84.183 88.862 84.183 150.816 0 13.881-1.606 27.618-4.773 40.989-5.236-4.656-11.907-7.206-18.972-7.206-7.638 0-14.819 2.975-20.22 8.376l-3.95 3.95-3.953-3.953c-4.641-4.641-10.814-7.197-17.383-7.197-6.568 0-12.742 2.556-17.379 7.193-3.023 3.019-5.157 6.688-6.284 10.689-2.588-.907-5.339-1.382-8.167-1.382-6.575 0-12.752 2.556-17.397 7.201-8.3 8.312-9.393 21.128-3.308 30.636-3.198 1.193-6.202 3.049-8.769 5.616-6.399 6.4-8.503 15.474-6.358 23.656-4.42 1.029-8.479 3.265-11.768 6.554-4.645 4.644-7.202 10.819-7.202 17.387s2.558 12.743 7.202 17.387l12.47 12.47c-13.344 3.16-27.058 4.763-40.92 4.763-20.892 0-41.291-3.6-60.687-10.685l5.209-10.345c4.2-8.341 4.901-17.819 1.973-26.687-1.712-5.185-4.552-9.792-8.277-13.57l41.756-47.469c4.335-4.93 6.492-11.254 6.074-17.809-.418-6.557-3.365-12.556-8.291-16.887-2.226-1.961-4.735-3.482-7.459-4.521-9.544-3.638-20.491-.932-27.244 6.737l-34.007 38.661 20.595-40.894c2.223-4.432 3.057-9.361 2.412-14.256-1.064-8.082-6.041-15.095-13.323-18.767-12.109-6.082-26.923-1.186-33.021 10.912l-12.873 25.566c-2.069-2.444-4.651-4.521-7.686-6.05-5.866-2.953-12.531-3.447-18.769-1.387-4.528 1.495-8.423 4.218-11.355 7.836-2.173-2.703-4.898-4.95-8.089-6.556-.488-.246-.982-.468-1.48-.679-1.716-9.916-2.586-20.08-2.586-30.28 0-61.954 31.954-118.644 84.183-150.816v42.329c0 19.016 15.262 34.523 34.179 34.943v33.534c0 13.559 11.031 24.589 24.589 24.589 3.626 0 7.067-.795 10.169-2.21 2.427 11.024 12.268 19.299 24.01 19.299s21.583-8.276 24.01-19.299c3.102 1.415 6.543 2.21 10.169 2.21 11.742 0 21.583-8.276 24.01-19.299 3.102 1.415 6.543 2.21 10.169 2.21 13.559 0 24.589-11.031 24.589-24.589v-31.617c0-4.142-3.358-7.5-7.5-7.5s-7.5 3.358-7.5 7.5v31.617c0 5.288-4.302 9.589-9.589 9.589s-9.589-4.302-9.589-9.589v-47.85c0-4.142-3.358-7.5-7.5-7.5s-7.5 3.358-7.5 7.5v64.939c0 5.288-4.302 9.589-9.589 9.589s-9.589-4.302-9.589-9.589v-64.939c0-4.142-3.358-7.5-7.5-7.5s-7.5 3.358-7.5 7.5v82.029c0 5.288-4.302 9.589-9.589 9.589s-9.589-4.302-9.589-9.589v-82.029c0-4.142-3.358-7.5-7.5-7.5s-7.5 3.358-7.5 7.5v64.939c0 5.288-4.302 9.589-9.589 9.589s-9.589-4.302-9.589-9.589v-105.953c0-4.142-3.358-7.5-7.5-7.5s-7.5 3.358-7.5 7.5v57.425c-10.646-.414-19.179-9.203-19.179-19.948v-54.566zm196.556 219.769-13.559 13.559-3.948-3.948c-1.814-1.814-2.813-4.224-2.813-6.786 0-2.559.998-4.965 2.812-6.777 1.809-1.808 4.215-2.804 6.777-2.804s4.969.996 6.777 2.803zm-61.426 62.365c-3.739-3.739-3.739-9.823 0-13.562 1.811-1.811 4.219-2.809 6.78-2.809 2.552 0 4.951.991 6.76 2.79l33.853 33.853c.005.005.01.01.015.014 3.726 3.74 3.723 9.814-.012 13.549-3.739 3.738-9.822 3.738-13.562 0zm17.186 51.961c-3.788 3.789-10.208 3.654-13.808-.247-.001-.001-.003-.003-.004-.004l-21.501-21.5c-3.706-3.67-3.689-9.874 0-13.562 3.688-3.687 9.883-3.71 13.558-.004l21.756 21.756c3.693 3.659 3.688 9.872-.001 13.561zm-5.107-88.215c-3.736-3.737-3.735-9.823 0-13.563 1.808-1.808 4.218-2.803 6.787-2.803 2.567 0 4.972.993 6.777 2.803l11.618 11.618-13.563 13.563zm-245.258 8.627 21.52-42.738c2.321-4.676 8.217-6.599 12.877-4.252 4.705 2.369 6.613 8.11 4.277 12.823l-21.544 42.792c-2.378 4.724-8.155 6.631-12.877 4.253-4.723-2.378-6.631-8.155-4.253-12.878zm-13.397-6.746c-2.318 4.66-8.238 6.588-12.877 4.252-4.658-2.345-6.62-8.226-4.254-12.873l13.836-27.479c2.321-4.677 8.216-6.599 12.877-4.252 4.721 2.377 6.629 8.151 4.254 12.873zm109.189-294.685c-7.267 12.373-11.754 26.564-12.595 41.714-61.384 33.883-99.332 97.946-99.332 168.263 0 9.757.741 19.487 2.193 29.034-.635.156-1.268.33-1.896.537-6.237 2.06-11.298 6.424-14.252 12.291l-10.015 19.889c-5.703-19.969-8.6-40.648-8.6-61.751 0-93.927 58.342-177.132 144.497-209.977zm-13.212 408.067c-19.094 37.768-65.159 54.462-104.675 34.563-38.388-19.33-53.893-66.287-34.563-104.675l15.946-31.668c2.104 2.48 4.699 4.541 7.691 6.047 5.764 2.903 12.267 3.414 18.384 1.498 2.027 5.819 6.219 10.89 12.143 13.874 11.898 5.991 26.854 1.351 33.021-10.904l21.52-42.738c.018-.036.033-.072.051-.108l23.002-45.681c2.379-4.722 8.165-6.63 12.882-4.261 2.836 1.43 4.777 4.169 5.193 7.327.251 1.907-.077 3.834-.943 5.561l-31 61.556c-1.518 3.051-1.676 6.613-.43 9.786 2.035 5.154 7.291 8.245 12.788 7.527 2.882-.379 5.529-1.794 7.451-3.981l49.267-56.009c2.637-2.995 6.914-4.054 10.638-2.632 1.042.397 2.015.99 2.896 1.767 1.92 1.688 3.067 4.025 3.23 6.582.163 2.558-.678 5.025-2.368 6.947l-43.464 49.414c-6.064-1.136-12.407 1.789-15.317 7.569l-26.186 52.004c-1.863 3.7-.374 8.209 3.326 10.072s8.209.375 10.072-3.326l25.826-51.29c4.413 2.438 7.695 6.39 9.285 11.205 1.672 5.063 1.272 10.475-1.126 15.238zm93.415 26.61c-28.494 0-56.14-5.249-82.321-15.578.8-1.405 1.571-2.831 2.303-4.286l12.544-24.911c21.539 8.092 44.23 12.205 67.474 12.205 18.102 0 35.975-2.52 53.203-7.481l25.775 25.775c-25.188 9.476-51.702 14.276-78.978 14.276zm218.17-6.53c-30.391 30.392-79.842 30.392-110.234 0l-31.109-31.11c3.014-1.221 5.782-3.043 8.15-5.411 3.289-3.289 5.525-7.347 6.554-11.768 2.053.538 4.159.832 6.269.832 6.297 0 12.594-2.396 17.387-7.19 4.688-4.688 7.068-10.814 7.171-16.972 6.432-.099 12.457-2.645 16.992-7.194 4.65-4.643 7.211-10.818 7.211-17.388 0-1.493-.139-2.964-.398-4.404 4.872-.886 9.36-3.221 12.941-6.802 1.048-1.048 1.985-2.179 2.815-3.373l11.462 11.462c2.928 2.929 7.677 2.929 10.606 0s2.929-7.678 0-10.606l-19.78-19.78c-.039-.041-.079-.079-.119-.119l-3.098-3.098c-3.669-3.669-8.545-5.689-13.733-5.689h-.014c-5.193.004-10.073 2.031-13.74 5.708l-12.016 12.049s0 0 0 0l-8.73 8.753c-2.704 2.704-6.3 4.193-10.124 4.193s-7.419-1.489-10.124-4.193l-1.021-1.021 52.284-52.284c2.568-2.568 5.982-3.982 9.614-3.982s7.046 1.415 9.614 3.982l55.17 55.17c30.392 30.393 30.392 79.843 0 110.235zm-107.567-94.006c4.777-1.342 9.159-3.885 12.768-7.494l3.427-3.436 1.949 1.949c1.814 1.814 2.813 4.224 2.813 6.786 0 2.559-.998 4.965-2.822 6.786-1.803 1.809-4.207 2.805-6.768 2.805-2.557 0-4.962-.996-6.776-2.803-.003-.003-.005-.006-.008-.009zm27.248-22.013 6.274-6.291c.835-.837 1.946-1.299 3.129-1.3h.003c1.335-.024 2.731.688 3.584 1.752-.457 1.435-1.251 2.751-2.344 3.844-1.814 1.814-4.221 2.813-6.776 2.813-1.356.001-2.665-.286-3.87-.818z"/></g></svg>