<?xml version="1.0" encoding="utf-8"?>
<!-- Generator: Adobe Illustrator 28.0.0, SVG Export Plug-In . SVG Version: 6.00 Build 0)  -->
<svg version="1.1" id="shields" xmlns="http://www.w3.org/2000/svg" xmlns:xlink="http://www.w3.org/1999/xlink" x="0px" y="0px"
	 viewBox="0 0 1500 1000" style="enable-background:new 0 0 1500 1000;" xml:space="preserve">
<style type="text/css">
	.st0{fill:#0B74B8;}
	.st1{fill:#2EAADE;}
	.st2{fill:#EBEBEB;}
	.st3{opacity:0.2;fill:url(#SVGID_1_);}
	.st4{fill:#FFFFFF;}
	.st5{opacity:0.3;fill:url(#SVGID_00000000920403966737760330000004929223663938431109_);}
	.st6{fill:#DD0031;}
	.st7{fill:#C3002F;}
	.st8{fill:#E44D26;}
	.st9{fill:#F16529;}
	.st10{fill:#00D8FF;}
	.st11{fill:#DAB92D;}
	.st12{fill:#FFD83A;}
	.st13{fill:#40B17E;}
	.st14{fill:#2F485E;}
	.st15{fill:#679F65;}
	.st16{fill:url(#SVGID_00000019643997304431801320000008200205669990040490_);}
	.st17{fill:url(#SVGID_00000056385911031797256840000007434927749706846611_);}
	.st18{fill:url(#SVGID_00000099637319033707044750000012141678437491642044_);}
</style>
<g>
	<g>
		<polygon points="688.43,113.24 688.43,125.73 688.43,141.98 688.43,154.47 702.21,154.47 721.5,154.47 721.5,141.98 
			702.21,141.98 702.21,125.73 721.5,125.73 721.5,113.24 702.21,113.24 		"/>
		<polygon points="728.06,124.27 746.46,143.44 728.06,143.44 728.06,154.47 765.67,154.47 765.67,143.44 748.07,124.27 
			765.67,124.27 765.67,113.24 728.06,113.24 		"/>
		<polygon points="810.84,113.24 773.23,113.24 773.23,124.27 791.63,143.44 773.23,143.44 773.23,154.47 810.84,154.47 
			810.84,143.44 793.25,124.27 810.84,124.27 		"/>
	</g>
	<g>
		<g>
			<polygon class="st0" points="749.49,441.38 653.89,414.84 632.59,175.9 866.68,175.9 845.35,414.81 			"/>
			<polygon class="st1" points="827.09,399.59 845.32,195.44 749.63,195.44 749.63,421.07 			"/>
		</g>
		<g>
			<polygon class="st2" points="684.14,313.75 820.41,254.44 823.03,225.13 681.53,284.45 			"/>
			<linearGradient id="SVGID_1_" gradientUnits="userSpaceOnUse" x1="745.7623" y1="271.9557" x2="691.9164" y2="297.9711">
				<stop  offset="0" style="stop-color:#FFFFFF"/>
				<stop  offset="1" style="stop-color:#000000"/>
			</linearGradient>
			<polygon class="st3" points="684.14,313.75 820.41,254.44 823.03,225.13 681.53,284.45 			"/>
			<polygon class="st2" points="749.62,225.13 676.24,225.13 676.94,232.99 678.85,254.44 749.72,254.44 749.72,225.13 			"/>
			<polygon class="st4" points="817.74,284.45 749.62,284.45 749.62,313.75 785.71,313.75 782.3,351.76 749.62,360.58 
				749.62,391.07 809.7,374.42 			"/>
			<polygon class="st4" points="749.62,255.9 749.62,285.25 820.41,254.44 823.03,225.13 			"/>
			
				<linearGradient id="SVGID_00000089554736366903423240000001276006964504300959_" gradientUnits="userSpaceOnUse" x1="749.6201" y1="255.1885" x2="823.0312" y2="255.1885">
				<stop  offset="0" style="stop-color:#FFFFFF"/>
				<stop  offset="1" style="stop-color:#000000"/>
			</linearGradient>
			<polygon style="opacity:0.3;fill:url(#SVGID_00000089554736366903423240000001276006964504300959_);" points="749.62,255.9 
				749.62,285.25 820.41,254.44 823.03,225.13 			"/>
			<polygon class="st2" points="681.53,284.45 684.14,313.75 749.72,313.75 749.72,284.45 			"/>
			<polygon class="st4" points="823.03,225.13 749.62,225.13 749.62,254.37 749.62,254.44 820.31,254.44 820.31,254.44 
				820.41,254.44 			"/>
			<polygon class="st2" points="749.63,360.59 749.62,360.59 716.99,351.77 714.9,328.4 699.04,328.4 685.48,328.4 689.59,374.42 
				749.61,391.08 749.63,391.08 			"/>
		</g>
	</g>
</g>
<g>
	<g>
		<g>
			<polygon class="st6" points="903.21,722.78 991.93,691.08 991.93,881.16 916.53,839.9 			"/>
			<polygon class="st7" points="1080.65,722.78 991.93,691.08 991.93,881.16 1067.34,839.9 			"/>
		</g>
		<g>
			<polygon class="st4" points="991.93,790.89 975.79,790.89 991.89,752.36 991.93,752.45 991.93,711.61 935.76,836.19 
				956.95,836.19 968.1,808.27 991.93,808.27 			"/>
			<polygon class="st4" points="991.93,790.89 1008.07,790.89 991.98,752.36 991.93,752.45 991.93,711.61 1048.1,836.19 
				1026.91,836.19 1015.77,808.27 991.93,808.27 			"/>
		</g>
	</g>
</g>
<g>
	<g>
		<polygon points="208.96,110.95 222.12,110.95 222.12,123.95 234.16,123.95 234.16,110.95 247.32,110.95 247.32,150.33 
			234.16,150.33 234.16,137.14 222.12,137.14 222.12,150.33 208.96,150.33 208.96,110.95 		"/>
		<polygon points="264.63,124 253.04,124 253.04,110.95 289.38,110.95 289.38,124 277.79,124 277.79,150.33 264.63,150.33 
			264.63,124 		"/>
		<polygon points="295.15,110.95 308.88,110.95 317.32,124.78 325.75,110.95 339.48,110.95 339.48,150.33 326.38,150.33 
			326.38,130.81 317.32,144.81 317.09,144.81 308.03,130.81 308.03,150.33 295.15,150.33 295.15,110.95 		"/>
		<polygon points="346.03,110.95 359.2,110.95 359.2,137.31 377.71,137.31 377.71,150.33 346.03,150.33 346.03,110.95 		"/>
	</g>
	<g>
		<g>
			<polygon class="st8" points="293.19,441.38 197.59,414.84 176.29,175.9 410.38,175.9 389.05,414.81 			"/>
			<polygon class="st9" points="370.79,399.59 389.02,195.44 293.33,195.44 293.33,421.07 			"/>
		</g>
		<polygon class="st4" points="293.42,254.05 364.11,254.05 366.73,224.74 293.42,224.74 293.32,224.74 219.94,224.74 
			227.84,313.36 293.32,313.36 293.42,313.36 329.41,313.36 326,351.37 293.32,360.19 293.32,360.19 293.29,360.2 260.66,351.39 
			258.57,328.01 229.15,328.01 233.26,374.03 293.29,390.69 293.42,390.65 293.42,390.65 353.4,374.03 361.44,284.06 293.42,284.06 
			293.32,284.06 254.64,284.06 251.97,254.05 293.32,254.05 		"/>
		<g>
			<polygon class="st2" points="293.33,360.19 293.32,360.19 293.32,360.19 293.29,360.2 260.66,351.39 258.57,328.01 
				229.15,328.01 233.26,374.03 293.29,390.69 293.33,390.68 			"/>
			<polygon class="st2" points="293.33,313.36 293.33,284.06 293.32,284.06 254.64,284.06 251.97,254.05 293.32,254.05 
				293.33,254.05 293.33,224.74 293.32,224.74 219.94,224.74 227.84,313.36 293.32,313.36 			"/>
		</g>
	</g>
</g>
<g>
	<g>
		<path class="st10" d="M669.64,786.12c0,9.97-8.08,18.05-18.05,18.05s-18.05-8.08-18.05-18.05c0-9.97,8.08-18.05,18.05-18.05
			S669.64,776.15,669.64,786.12z"/>
		<path class="st10" d="M651.58,745.1c-55.56,0-100.6,18.37-100.6,41.02c0,22.66,45.04,41.02,100.6,41.02
			c55.56,0,100.6-18.37,100.6-41.02C752.19,763.46,707.14,745.1,651.58,745.1z M719.56,807.38c-18.02,7.35-42.16,11.39-67.98,11.39
			c-25.81,0-49.95-4.05-67.98-11.39c-15.19-6.19-24.25-14.14-24.25-21.26s9.07-15.06,24.25-21.25
			c18.02-7.35,42.16-11.39,67.98-11.39c25.81,0,49.95,4.05,67.98,11.39c15.19,6.19,24.25,14.14,24.25,21.25
			S734.75,801.18,719.56,807.38z"/>
		<path class="st10" d="M616.06,765.61c-27.78,48.12-34.4,96.3-14.78,107.63c19.62,11.33,58.05-18.49,85.83-66.61
			c27.78-48.12,34.39-96.31,14.77-107.63C682.27,687.67,643.84,717.49,616.06,765.61z M703.98,737.88
			c-2.65,19.28-11.21,42.21-24.12,64.57c-12.91,22.36-28.48,41.24-43.86,53.17c-12.96,10.05-24.37,13.93-30.53,10.38
			c-6.17-3.56-8.51-15.38-6.28-31.63c2.65-19.28,11.21-42.21,24.12-64.57c12.91-22.35,28.48-41.24,43.86-53.17
			c12.96-10.06,24.37-13.94,30.54-10.38C703.86,709.8,706.21,721.63,703.98,737.88z"/>
		<path class="st10" d="M601.28,699c-19.62,11.33-13.01,59.52,14.78,107.63c27.78,48.12,66.21,77.94,85.83,66.61
			c19.62-11.33,13.01-59.52-14.78-107.63C659.33,717.49,620.9,687.67,601.28,699z M605.47,706.25c6.16-3.56,17.58,0.32,30.54,10.38
			c15.37,11.93,30.95,30.81,43.86,53.17c12.91,22.36,21.47,45.29,24.12,64.57c2.23,16.25-0.12,28.08-6.28,31.63
			c-6.16,3.56-17.58-0.32-30.54-10.38c-15.37-11.93-30.95-30.82-43.86-53.17c-12.91-22.35-21.47-45.28-24.12-64.57
			C596.96,721.63,599.3,709.8,605.47,706.25z"/>
	</g>
</g>
<g>
	<g>
		<g>
			<polygon class="st11" points="1205.93,441.38 1110.4,414.63 1089.62,175.64 1323.71,176.16 1301.85,415.02 			"/>
			<polygon class="st12" points="1283.63,399.76 1302.31,195.65 1206.62,195.44 1206.12,421.07 			"/>
		</g>
		<polygon class="st4" points="1211.84,224.75 1211.64,313.38 1240.95,313.44 1241.29,313.44 1237.8,351.44 1211.54,358.46 
			1211.47,388.9 1265.14,374.16 1273.38,284.21 1241.01,284.13 1241.08,254.12 1276.02,254.2 1276.12,254.2 1278.81,224.9 		"/>
		<polygon class="st4" points="1171.6,224.66 1175.74,352.97 1166.73,350.81 1164.87,327.92 1141,327.87 1145,373.89 
			1198.62,388.91 1198.98,224.72 		"/>
	</g>
	<g>
		<polygon points="1245.42,113.32 1207.81,113.24 1207.79,124.27 1226.15,143.48 1207.75,143.44 1207.72,154.47 1245.33,154.55 
			1245.36,143.52 1227.8,124.31 1245.4,124.35 		"/>
		<polygon points="1187.41,141.93 1181.9,141.92 1181.91,139.2 1168.13,139.16 1168.12,141.89 1168.1,151.54 1168.1,154.38 
			1201.17,154.45 1201.26,113.23 1187.48,113.19 		"/>
	</g>
</g>
<g>
	<g>
		<path class="st13" d="M1427.1,699.36l-39.19-0.09l-56.13,104.25l-55.67-104.5l-39.19-0.09c-0.4,0-0.58,0.29-0.38,0.64
			c0,0,94.92,173.7,95.04,173.72c0,0,0.02-0.03,0.05-0.08c0.03,0.05,0.04,0.08,0.05,0.08c0.11-0.02,95.81-173.29,95.81-173.29
			C1427.68,699.65,1427.5,699.36,1427.1,699.36z"/>
	</g>
	<polygon class="st14" points="1354.26,699.2 1331.92,740.22 1309.77,699.1 1276.12,699.03 1331.78,803.53 1387.91,699.27 	"/>
</g>
<g>
	<path class="st15" d="M261.07,903.26c-1.26,0-2.51-0.33-3.61-0.97l-11.49-6.8c-1.71-0.96-0.88-1.3-0.31-1.5
		c2.29-0.8,2.75-0.98,5.2-2.36c0.25-0.14,0.59-0.09,0.85,0.06l8.83,5.24c0.32,0.18,0.77,0.18,1.07,0l34.41-19.86
		c0.32-0.18,0.53-0.55,0.53-0.93v-39.71c0-0.39-0.21-0.75-0.54-0.95l-34.4-19.85c-0.32-0.18-0.74-0.18-1.06,0l-34.39,19.85
		c-0.33,0.19-0.55,0.57-0.55,0.94v39.71c0,0.38,0.21,0.74,0.54,0.92l9.43,5.45c5.11,2.55,8.25-0.46,8.25-3.48v-39.21
		c0-0.56,0.44-0.99,1-0.99h4.36c0.55,0,1,0.44,1,0.99v39.21c0,6.83-3.72,10.74-10.19,10.74c-1.99,0-3.55,0-7.93-2.15l-9.02-5.2
		c-2.23-1.29-3.61-3.7-3.61-6.28v-39.71c0-2.58,1.38-4.99,3.61-6.27l34.41-19.89c2.18-1.23,5.07-1.23,7.23,0l34.41,19.89
		c2.23,1.29,3.61,3.69,3.61,6.27v39.71c0,2.58-1.39,4.98-3.61,6.28l-34.41,19.87C263.59,902.93,262.34,903.26,261.07,903.26"/>
	<path class="st15" d="M271.7,875.9c-15.06,0-18.21-6.91-18.21-12.71c0-0.55,0.44-0.99,0.99-0.99h4.45c0.5,0,0.91,0.36,0.99,0.84
		c0.67,4.53,2.67,6.82,11.78,6.82c7.25,0,10.34-1.64,10.34-5.49c0-2.22-0.87-3.86-12.14-4.97c-9.42-0.93-15.24-3.01-15.24-10.54
		c0-6.95,5.85-11.09,15.66-11.09c11.03,0,16.48,3.83,17.17,12.04c0.03,0.28-0.07,0.55-0.26,0.76c-0.19,0.2-0.45,0.32-0.73,0.32
		h-4.47c-0.46,0-0.87-0.33-0.97-0.78c-1.07-4.77-3.68-6.29-10.75-6.29c-7.91,0-8.83,2.76-8.83,4.82c0,2.5,1.08,3.23,11.77,4.65
		c10.58,1.4,15.6,3.38,15.6,10.81C288.86,871.61,282.6,875.9,271.7,875.9"/>
	<path d="M352.18,681.91l-21.86-12.58c-1.47-0.85-2.67-0.15-2.67,1.54v59.75l-11.24-6.49c-1.48-0.85-3.89-0.85-5.36,0l-35.75,20.64
		c-1.47,0.85-2.68,2.94-2.68,4.64v41.28c0,1.7,1.21,3.79,2.68,4.64l35.75,20.64c1.47,0.85,3.89,0.85,5.36,0l35.75-20.64
		c1.47-0.85,2.68-2.94,2.68-4.64V686.53C354.85,684.84,353.65,682.76,352.18,681.91z M327.48,776.96c0,0.57-0.4,1.27-0.9,1.55
		l-11.95,6.9c-0.49,0.28-1.3,0.28-1.79,0l-11.95-6.9c-0.49-0.29-0.9-0.98-0.9-1.55v-13.8c0-0.57,0.4-1.27,0.9-1.55l11.95-6.9
		c0.49-0.29,1.3-0.29,1.79,0l11.95,6.9c0.49,0.29,0.9,0.98,0.9,1.55V776.96z"/>
	<path d="M151.98,744.49l-35.75-20.64c-1.48-0.85-3.89-0.85-5.36,0l-35.75,20.64c-1.47,0.85-2.68,2.94-2.68,4.64v56.03
		c0,1.69,1.2,2.39,2.67,1.54l22.04-12.71c1.47-0.85,2.67-2.92,2.67-4.62v-26.51c0-0.57,0.4-1.27,0.89-1.55l11.95-6.9
		c0.49-0.28,1.3-0.28,1.79,0l11.95,6.9c0.49,0.28,0.9,0.98,0.9,1.55v26.51c0,1.69,1.2,3.77,2.67,4.62l22.03,12.71
		c1.47,0.84,2.67,0.15,2.67-1.54v-56.03C154.66,747.43,153.45,745.34,151.98,744.49z"/>
	<g>
		<path d="M454.9,748.83c-0.02-0.1-0.04-0.21-0.06-0.31v0c0-0.02-0.01-0.04-0.01-0.07c-0.05-0.23-0.12-0.46-0.21-0.69
			c-0.01-0.02-0.01-0.04-0.02-0.05c0,0,0,0,0,0c-0.07-0.17-0.13-0.33-0.22-0.5l0,0c-0.11-0.23-0.24-0.46-0.37-0.67
			c-0.03-0.05-0.06-0.1-0.09-0.14c-0.09-0.13-0.18-0.26-0.27-0.38c-0.08-0.1-0.16-0.2-0.24-0.29c-0.05-0.06-0.1-0.11-0.16-0.17
			c-0.13-0.13-0.26-0.26-0.4-0.37c-0.03-0.03-0.07-0.05-0.1-0.08c-0.15-0.12-0.31-0.24-0.48-0.33l-8.19-4.73l-27.56-15.91
			c-1.47-0.85-3.89-0.85-5.36,0l-35.75,20.64c-1.47,0.85-2.68,2.94-2.68,4.64v41.28c0,1.7,1.21,3.79,2.68,4.64l10.95,6.33
			l24.77,14.32c1.47,0.85,3.87,0.84,5.33,0l22.02-12.73c1.47-0.85,1.46-2.23,0-3.08l-37.49-21.66c-0.49-0.29-0.9-0.98-0.9-1.55
			v-13.8c0-0.57,0.4-1.27,0.9-1.55l11.95-6.9c0.49-0.29,1.3-0.29,1.79,0l11.95,6.9c0.49,0.29,0.9,0.98,0.9,1.55v10.63
			c0,1.69,1.2,2.39,2.67,1.54l11.47-6.61l0,0l10.57-6.09c1.47-0.85,2.67-2.92,2.67-4.62v-6.82v-1.77
			C454.95,749.23,454.93,749.03,454.9,748.83z"/>
		<path class="st15" d="M414.34,760.43c-0.28-0.16-0.74-0.16-1.01,0l-6.76,3.91c-0.28,0.16-0.51,0.56-0.51,0.88v7.81
			c0,0.32,0.23,0.72,0.51,0.88l6.76,3.9c0.28,0.16,0.74,0.16,1.01,0l6.76-3.9c0.28-0.16,0.51-0.56,0.51-0.88v-7.81
			c0-0.32-0.23-0.72-0.51-0.88L414.34,760.43z"/>
	</g>
	<g>
		
			<linearGradient id="SVGID_00000026868271403892449020000008831665244913201290_" gradientUnits="userSpaceOnUse" x1="243.8865" y1="715.4205" x2="168.5409" y2="851.7333">
			<stop  offset="0" style="stop-color:#41873F"/>
			<stop  offset="0.3288" style="stop-color:#418B3D"/>
			<stop  offset="0.6352" style="stop-color:#419637"/>
			<stop  offset="0.9319" style="stop-color:#3FA92D"/>
			<stop  offset="1" style="stop-color:#3FAE2A"/>
		</linearGradient>
		<path style="fill:url(#SVGID_00000026868271403892449020000008831665244913201290_);" d="M210.96,724.21l-35.75,20.64
			c-1.47,0.85-2.68,2.94-2.68,4.64v41.28c0,1.7,1.21,3.79,2.68,4.64l35.75,20.64c1.47,0.85,3.89,0.85,5.36,0l35.75-20.64
			c1.47-0.85,2.68-2.94,2.68-4.64v-41.28c0-1.7-1.21-3.79-2.68-4.64l-35.75-20.64C214.85,723.36,212.44,723.36,210.96,724.21z"/>
		
			<linearGradient id="SVGID_00000063621308262888663550000010141992475480440497_" gradientUnits="userSpaceOnUse" x1="145.4391" y1="772.801" x2="294.0851" y2="766.9849">
			<stop  offset="0" style="stop-color:#41873F"/>
			<stop  offset="0.3288" style="stop-color:#418B3D"/>
			<stop  offset="0.6352" style="stop-color:#419637"/>
			<stop  offset="0.9319" style="stop-color:#3FA92D"/>
			<stop  offset="1" style="stop-color:#3FAE2A"/>
		</linearGradient>
		<path style="fill:url(#SVGID_00000063621308262888663550000010141992475480440497_);" d="M173.07,790.62
			c-0.85,1.47-0.34,3.36,1.13,4.21l37.78,21.81c1.47,0.85,3.36,0.34,4.21-1.13l38.03-65.87c0.85-1.47,0.34-3.36-1.13-4.21
			l-37.78-21.81c-1.47-0.85-3.36-0.34-4.21,1.13L173.07,790.62z"/>
		
			<linearGradient id="SVGID_00000080191980866119696000000017576167263477120958_" gradientUnits="userSpaceOnUse" x1="174.69" y1="766.9922" x2="253.2038" y2="773.3211">
			<stop  offset="0" style="stop-color:#6CC04A"/>
			<stop  offset="0.0919" style="stop-color:#6CC04A"/>
			<stop  offset="0.2864" style="stop-color:#66B848"/>
			<stop  offset="0.5968" style="stop-color:#54A044"/>
			<stop  offset="0.8624" style="stop-color:#41873F"/>
			<stop  offset="1" style="stop-color:#41873F"/>
		</linearGradient>
		<path style="fill:url(#SVGID_00000080191980866119696000000017576167263477120958_);" d="M254.21,790.62
			c0.85,1.47,0.34,3.36-1.13,4.21l-37.78,21.81c-1.47,0.85-3.36,0.34-4.21-1.13l-38.03-65.87c-0.85-1.47-0.34-3.36,1.13-4.21
			l37.78-21.81c1.47-0.85,3.36-0.34,4.21,1.13L254.21,790.62z"/>
	</g>
</g>
<g>
	<path d="M170.35,619.69v-35.34h4.98l11.33,17.88c2.62,4.14,4.67,7.87,6.34,11.48l0.1-0.05c-0.42-4.72-0.52-9.02-0.52-14.52v-14.79
		h4.3v35.34h-4.61l-11.22-17.93c-2.46-3.93-4.82-7.97-6.61-11.8l-0.16,0.05c0.26,4.46,0.37,8.7,0.37,14.58v15.1H170.35z"/>
	<path d="M235.05,601.65c0,12.17-7.39,18.61-16.41,18.61c-9.33,0-15.89-7.24-15.89-17.93c0-11.22,6.97-18.56,16.41-18.56
		C228.81,583.77,235.05,591.16,235.05,601.65z M207.62,602.23c0,7.55,4.09,14.31,11.27,14.31c7.24,0,11.33-6.66,11.33-14.68
		c0-7.03-3.67-14.37-11.27-14.37C211.4,587.5,207.62,594.47,207.62,602.23z"/>
	<path d="M240.97,584.82c2.78-0.42,6.08-0.74,9.7-0.74c6.55,0,11.22,1.52,14.31,4.4c3.15,2.88,4.98,6.97,4.98,12.69
		c0,5.77-1.78,10.49-5.08,13.74c-3.3,3.3-8.76,5.09-15.63,5.09c-3.25,0-5.98-0.16-8.28-0.42V584.82z M245.53,616.07
		c1.15,0.21,2.83,0.26,4.61,0.26c9.75,0,15.05-5.45,15.05-15c0.05-8.34-4.67-13.63-14.31-13.63c-2.36,0-4.14,0.21-5.35,0.47V616.07z
		"/>
	<path d="M294.19,603.12h-13.74v12.74h15.31v3.83h-19.87v-35.34h19.09v3.83h-14.52v11.17h13.74V603.12z"/>
	<path d="M320.04,584.35h4.56V608c0,9.38-4.61,12.27-10.7,12.27c-1.68,0-3.72-0.37-4.88-0.84l0.68-3.72
		c0.95,0.37,2.31,0.68,3.83,0.68c4.09,0,6.5-1.83,6.5-8.76V584.35z"/>
	<path d="M331.57,614.13c2.05,1.26,5.04,2.31,8.18,2.31c4.67,0,7.39-2.46,7.39-6.03c0-3.3-1.89-5.19-6.66-7.03
		c-5.77-2.04-9.33-5.03-9.33-10.01c0-5.51,4.56-9.59,11.43-9.59c3.62,0,6.24,0.84,7.81,1.73l-1.26,3.72
		c-1.15-0.63-3.51-1.68-6.71-1.68c-4.82,0-6.66,2.88-6.66,5.3c0,3.3,2.15,4.93,7.03,6.82c5.98,2.31,9.02,5.19,9.02,10.38
		c0,5.45-4.04,10.17-12.37,10.17c-3.41,0-7.13-1-9.02-2.25L331.57,614.13z"/>
</g>
<g>
	<path d="M554.9,584.82c2.31-0.47,5.61-0.74,8.76-0.74c4.88,0,8.02,0.89,10.22,2.88c1.78,1.57,2.78,3.98,2.78,6.71
		c0,4.67-2.94,7.76-6.66,9.02v0.16c2.73,0.94,4.35,3.46,5.19,7.13c1.15,4.93,1.99,8.34,2.73,9.7h-4.72c-0.58-1-1.36-4.04-2.36-8.44
		c-1.05-4.88-2.94-6.71-7.08-6.87h-4.3v15.31h-4.56V584.82z M559.47,600.92h4.67c4.88,0,7.97-2.67,7.97-6.71
		c0-4.56-3.3-6.55-8.13-6.61c-2.2,0-3.77,0.21-4.51,0.42V600.92z"/>
	<path d="M601.41,603.12h-13.74v12.74h15.31v3.83h-19.87v-35.34h19.09v3.83h-14.53v11.17h13.74V603.12z"/>
	<path d="M614.62,608.57l-3.67,11.12h-4.72l12.01-35.34h5.5l12.06,35.34h-4.88l-3.78-11.12H614.62z M626.21,605.01l-3.46-10.17
		c-0.79-2.31-1.31-4.4-1.83-6.45h-0.11c-0.52,2.1-1.1,4.25-1.78,6.4l-3.46,10.22H626.21z"/>
	<path d="M664.9,618.54c-1.68,0.84-5.03,1.68-9.33,1.68c-9.96,0-17.46-6.29-17.46-17.88c0-11.06,7.5-18.56,18.46-18.56
		c4.4,0,7.18,0.94,8.39,1.57l-1.1,3.72c-1.73-0.84-4.2-1.47-7.13-1.47c-8.28,0-13.79,5.3-13.79,14.58c0,8.65,4.98,14.21,13.58,14.21
		c2.78,0,5.61-0.58,7.45-1.47L664.9,618.54z"/>
	<path d="M678.8,588.23h-10.75v-3.88h26.17v3.88h-10.8v31.46h-4.61V588.23z"/>
	<path d="M716.49,584.35h4.56V608c0,9.38-4.61,12.27-10.7,12.27c-1.68,0-3.72-0.37-4.88-0.84l0.68-3.72
		c0.94,0.37,2.31,0.68,3.83,0.68c4.09,0,6.5-1.83,6.5-8.76V584.35z"/>
	<path d="M728.03,614.13c2.04,1.26,5.03,2.31,8.18,2.31c4.67,0,7.39-2.46,7.39-6.03c0-3.3-1.89-5.19-6.66-7.03
		c-5.77-2.04-9.33-5.03-9.33-10.01c0-5.51,4.56-9.59,11.43-9.59c3.62,0,6.24,0.84,7.81,1.73l-1.26,3.72
		c-1.15-0.63-3.51-1.68-6.71-1.68c-4.82,0-6.66,2.88-6.66,5.3c0,3.3,2.15,4.93,7.03,6.82c5.98,2.31,9.02,5.19,9.02,10.38
		c0,5.45-4.04,10.17-12.37,10.17c-3.41,0-7.13-1-9.02-2.25L728.03,614.13z"/>
</g>
<g>
	<path d="M891.87,608.57l-3.67,11.12h-4.72l12.01-35.34h5.5l12.06,35.34h-4.88l-3.78-11.12H891.87z M903.45,605.01l-3.46-10.17
		c-0.79-2.31-1.31-4.4-1.83-6.45h-0.11c-0.52,2.1-1.1,4.25-1.78,6.4l-3.46,10.22H903.45z"/>
	<path d="M918.24,619.69v-35.34h4.98l11.33,17.88c2.62,4.14,4.67,7.87,6.34,11.48l0.11-0.05c-0.42-4.72-0.52-9.02-0.52-14.52v-14.79
		h4.3v35.34h-4.61l-11.22-17.93c-2.46-3.93-4.82-7.97-6.61-11.8l-0.16,0.05c0.26,4.46,0.37,8.7,0.37,14.58v15.1H918.24z"/>
	<path d="M979.64,618.12c-2.04,0.73-6.08,1.94-10.85,1.94c-5.35,0-9.75-1.36-13.21-4.67c-3.04-2.94-4.93-7.66-4.93-13.16
		c0.05-10.54,7.29-18.25,19.14-18.25c4.09,0,7.29,0.89,8.81,1.62l-1.1,3.72c-1.89-0.84-4.25-1.52-7.81-1.52
		c-8.6,0-14.21,5.35-14.21,14.21c0,8.97,5.4,14.26,13.63,14.26c2.99,0,5.03-0.42,6.08-0.94V604.8H968v-3.67h11.64V618.12z"/>
	<path d="M991.17,584.35v20.92c0,7.92,3.51,11.27,8.23,11.27c5.24,0,8.6-3.46,8.6-11.27v-20.92h4.61v20.61
		c0,10.85-5.72,15.31-13.37,15.31c-7.24,0-12.69-4.14-12.69-15.1v-20.82H991.17z"/>
	<path d="M1020.53,584.35h4.56v31.51h15.1v3.83h-19.66V584.35z"/>
	<path d="M1050.99,608.57l-3.67,11.12h-4.72l12.01-35.34h5.51l12.06,35.34h-4.88l-3.78-11.12H1050.99z M1062.58,605.01l-3.46-10.17
		c-0.79-2.31-1.31-4.4-1.83-6.45h-0.1c-0.52,2.1-1.1,4.25-1.78,6.4l-3.46,10.22H1062.58z"/>
	<path d="M1077.37,584.82c2.31-0.47,5.61-0.74,8.76-0.74c4.88,0,8.02,0.89,10.22,2.88c1.78,1.57,2.78,3.98,2.78,6.71
		c0,4.67-2.94,7.76-6.66,9.02v0.16c2.73,0.94,4.35,3.46,5.19,7.13c1.15,4.93,1.99,8.34,2.73,9.7h-4.72c-0.58-1-1.36-4.04-2.36-8.44
		c-1.05-4.88-2.94-6.71-7.08-6.87h-4.3v15.31h-4.56V584.82z M1081.93,600.92h4.67c4.88,0,7.97-2.67,7.97-6.71
		c0-4.56-3.3-6.55-8.13-6.61c-2.2,0-3.77,0.21-4.51,0.42V600.92z"/>
</g>
<g>
	<path d="M1272.11,619.69l-11.54-35.34h4.93l5.51,17.41c1.52,4.77,2.83,9.07,3.78,13.21h0.1c1-4.09,2.46-8.55,4.04-13.16l5.98-17.46
		h4.88l-12.64,35.34H1272.11z"/>
	<path d="M1298.17,584.35v20.92c0,7.92,3.51,11.27,8.23,11.27c5.24,0,8.6-3.46,8.6-11.27v-20.92h4.61v20.61
		c0,10.85-5.72,15.31-13.37,15.31c-7.24,0-12.69-4.14-12.69-15.1v-20.82H1298.17z"/>
	<path d="M1345.83,603.12h-13.74v12.74h15.31v3.83h-19.87v-35.34h19.08v3.83h-14.52v11.17h13.74V603.12z"/>
	<path d="M1371.68,584.35h4.56V608c0,9.38-4.61,12.27-10.7,12.27c-1.68,0-3.72-0.37-4.88-0.84l0.68-3.72
		c0.94,0.37,2.31,0.68,3.83,0.68c4.09,0,6.5-1.83,6.5-8.76V584.35z"/>
	<path d="M1383.21,614.13c2.04,1.26,5.03,2.31,8.18,2.31c4.67,0,7.39-2.46,7.39-6.03c0-3.3-1.89-5.19-6.66-7.03
		c-5.77-2.04-9.33-5.03-9.33-10.01c0-5.51,4.56-9.59,11.43-9.59c3.62,0,6.24,0.84,7.81,1.73l-1.26,3.72
		c-1.15-0.63-3.51-1.68-6.71-1.68c-4.82,0-6.66,2.88-6.66,5.3c0,3.3,2.15,4.93,7.03,6.82c5.98,2.31,9.02,5.19,9.02,10.38
		c0,5.45-4.04,10.17-12.37,10.17c-3.41,0-7.13-1-9.02-2.25L1383.21,614.13z"/>
</g>
</svg>
